<mxfile host="app.diagrams.net" modified="2021-10-09T03:20:17.207Z" agent="5.0 (Windows NT 10.0; Win64; x64) AppleWebKit/537.36 (KHTML, like Gecko) Chrome/94.0.4606.61 Safari/537.36" etag="v2hTn-ywGELGGtyGnFo1" version="15.3.8" type="github">
  <diagram id="NMh_HXRJjf_2bCsdqkON" name="Page-1">
    <mxGraphModel dx="1049" dy="587" grid="1" gridSize="10" guides="1" tooltips="1" connect="1" arrows="1" fold="1" page="1" pageScale="1" pageWidth="1200" pageHeight="1920" math="0" shadow="0">
      <root>
        <mxCell id="0" />
        <mxCell id="1" parent="0" />
        <mxCell id="LWi7PXQvQpXjzRUc1ZB_-1" value="Kafka-Metrics" style="shape=step;perimeter=stepPerimeter;whiteSpace=wrap;html=1;fixedSize=1;" vertex="1" parent="1">
          <mxGeometry x="160" y="265" width="130" height="40" as="geometry" />
        </mxCell>
        <mxCell id="LWi7PXQvQpXjzRUc1ZB_-2" value="Meta" style="shape=cylinder3;whiteSpace=wrap;html=1;boundedLbl=1;backgroundOutline=1;size=15;" vertex="1" parent="1">
          <mxGeometry x="395" y="320" width="90" height="60" as="geometry" />
        </mxCell>
        <mxCell id="LWi7PXQvQpXjzRUc1ZB_-3" value="Flink/Spark&lt;br&gt;告警、聚合" style="rounded=0;whiteSpace=wrap;html=1;" vertex="1" parent="1">
          <mxGeometry x="380" y="215" width="120" height="50" as="geometry" />
        </mxCell>
        <mxCell id="LWi7PXQvQpXjzRUc1ZB_-4" value="Kafka-Config" style="shape=step;perimeter=stepPerimeter;whiteSpace=wrap;html=1;fixedSize=1;" vertex="1" parent="1">
          <mxGeometry x="160" y="180" width="130" height="40" as="geometry" />
        </mxCell>
        <mxCell id="LWi7PXQvQpXjzRUc1ZB_-5" value="1. 主机、租户、Region等&lt;br&gt;2. 告警规则，包括针对主机、Tag等&lt;br&gt;3. 通知模板、规则" style="text;html=1;strokeColor=none;fillColor=none;align=left;verticalAlign=middle;whiteSpace=wrap;rounded=0;" vertex="1" parent="1">
          <mxGeometry x="495" y="330" width="210" height="70" as="geometry" />
        </mxCell>
        <mxCell id="LWi7PXQvQpXjzRUc1ZB_-6" value="Service&lt;br&gt;REST-API" style="rounded=1;whiteSpace=wrap;html=1;align=center;" vertex="1" parent="1">
          <mxGeometry x="392.5" y="100" width="95" height="50" as="geometry" />
        </mxCell>
        <mxCell id="LWi7PXQvQpXjzRUc1ZB_-7" value="" style="endArrow=classic;html=1;exitX=0;exitY=0.5;exitDx=0;exitDy=0;entryX=0.5;entryY=0;entryDx=0;entryDy=0;edgeStyle=orthogonalEdgeStyle;elbow=vertical;curved=1;" edge="1" parent="1" source="LWi7PXQvQpXjzRUc1ZB_-6" target="LWi7PXQvQpXjzRUc1ZB_-4">
          <mxGeometry width="50" height="50" relative="1" as="geometry">
            <mxPoint x="350" y="220" as="sourcePoint" />
            <mxPoint x="400" y="170" as="targetPoint" />
          </mxGeometry>
        </mxCell>
        <mxCell id="LWi7PXQvQpXjzRUc1ZB_-8" value="" style="endArrow=classic;html=1;exitX=1;exitY=0.5;exitDx=0;exitDy=0;edgeStyle=orthogonalEdgeStyle;elbow=vertical;entryX=1.01;entryY=0.275;entryDx=0;entryDy=0;entryPerimeter=0;curved=1;" edge="1" parent="1" source="LWi7PXQvQpXjzRUc1ZB_-6" target="LWi7PXQvQpXjzRUc1ZB_-2">
          <mxGeometry width="50" height="50" relative="1" as="geometry">
            <mxPoint x="402.5" y="135" as="sourcePoint" />
            <mxPoint x="488" y="330" as="targetPoint" />
            <Array as="points">
              <mxPoint x="530" y="125" />
              <mxPoint x="530" y="336" />
            </Array>
          </mxGeometry>
        </mxCell>
        <mxCell id="LWi7PXQvQpXjzRUc1ZB_-9" value="" style="endArrow=classic;html=1;entryX=0.5;entryY=0;entryDx=0;entryDy=0;edgeStyle=orthogonalEdgeStyle;elbow=vertical;curved=1;entryPerimeter=0;exitX=0.5;exitY=1;exitDx=0;exitDy=0;" edge="1" parent="1" source="LWi7PXQvQpXjzRUc1ZB_-3" target="LWi7PXQvQpXjzRUc1ZB_-2">
          <mxGeometry width="50" height="50" relative="1" as="geometry">
            <mxPoint x="445" y="260" as="sourcePoint" />
            <mxPoint x="235" y="200" as="targetPoint" />
          </mxGeometry>
        </mxCell>
        <mxCell id="LWi7PXQvQpXjzRUc1ZB_-10" value="" style="endArrow=classic;html=1;entryX=0;entryY=0.5;entryDx=0;entryDy=0;edgeStyle=orthogonalEdgeStyle;elbow=vertical;curved=1;exitX=1;exitY=0.5;exitDx=0;exitDy=0;" edge="1" parent="1" source="LWi7PXQvQpXjzRUc1ZB_-4" target="LWi7PXQvQpXjzRUc1ZB_-3">
          <mxGeometry width="50" height="50" relative="1" as="geometry">
            <mxPoint x="450" y="275" as="sourcePoint" />
            <mxPoint x="450" y="330" as="targetPoint" />
          </mxGeometry>
        </mxCell>
        <mxCell id="LWi7PXQvQpXjzRUc1ZB_-11" value="" style="endArrow=classic;html=1;entryX=0;entryY=0.5;entryDx=0;entryDy=0;edgeStyle=orthogonalEdgeStyle;elbow=vertical;curved=1;" edge="1" parent="1" source="LWi7PXQvQpXjzRUc1ZB_-1" target="LWi7PXQvQpXjzRUc1ZB_-3">
          <mxGeometry width="50" height="50" relative="1" as="geometry">
            <mxPoint x="300" y="220" as="sourcePoint" />
            <mxPoint x="390" y="250" as="targetPoint" />
          </mxGeometry>
        </mxCell>
        <mxCell id="LWi7PXQvQpXjzRUc1ZB_-13" value="Kafka-Events" style="shape=step;perimeter=stepPerimeter;whiteSpace=wrap;html=1;fixedSize=1;" vertex="1" parent="1">
          <mxGeometry x="600" y="250" width="130" height="40" as="geometry" />
        </mxCell>
        <mxCell id="LWi7PXQvQpXjzRUc1ZB_-14" value="" style="endArrow=classic;html=1;entryX=0;entryY=0.5;entryDx=0;entryDy=0;edgeStyle=orthogonalEdgeStyle;elbow=vertical;curved=1;exitX=1;exitY=0.5;exitDx=0;exitDy=0;" edge="1" parent="1" source="LWi7PXQvQpXjzRUc1ZB_-3" target="LWi7PXQvQpXjzRUc1ZB_-13">
          <mxGeometry width="50" height="50" relative="1" as="geometry">
            <mxPoint x="299.9999999999998" y="295" as="sourcePoint" />
            <mxPoint x="389.9999999999998" y="250" as="targetPoint" />
          </mxGeometry>
        </mxCell>
        <mxCell id="LWi7PXQvQpXjzRUc1ZB_-15" value="Kafka-Aggs" style="shape=step;perimeter=stepPerimeter;whiteSpace=wrap;html=1;fixedSize=1;" vertex="1" parent="1">
          <mxGeometry x="600" y="180" width="130" height="40" as="geometry" />
        </mxCell>
        <mxCell id="LWi7PXQvQpXjzRUc1ZB_-16" value="" style="endArrow=classic;html=1;entryX=0;entryY=0.5;entryDx=0;entryDy=0;edgeStyle=orthogonalEdgeStyle;elbow=vertical;curved=1;exitX=1;exitY=0.5;exitDx=0;exitDy=0;" edge="1" parent="1" source="LWi7PXQvQpXjzRUc1ZB_-3" target="LWi7PXQvQpXjzRUc1ZB_-15">
          <mxGeometry width="50" height="50" relative="1" as="geometry">
            <mxPoint x="509.9999999999998" y="250" as="sourcePoint" />
            <mxPoint x="630" y="290" as="targetPoint" />
          </mxGeometry>
        </mxCell>
        <mxCell id="LWi7PXQvQpXjzRUc1ZB_-18" value="Service&lt;br&gt;持久化、告警抑制" style="rounded=1;whiteSpace=wrap;html=1;align=center;" vertex="1" parent="1">
          <mxGeometry x="810" y="215" width="130" height="50" as="geometry" />
        </mxCell>
        <mxCell id="LWi7PXQvQpXjzRUc1ZB_-19" value="" style="endArrow=classic;html=1;entryX=0;entryY=0.5;entryDx=0;entryDy=0;edgeStyle=orthogonalEdgeStyle;elbow=vertical;curved=1;exitX=1;exitY=0.5;exitDx=0;exitDy=0;" edge="1" parent="1" source="LWi7PXQvQpXjzRUc1ZB_-15" target="LWi7PXQvQpXjzRUc1ZB_-18">
          <mxGeometry width="50" height="50" relative="1" as="geometry">
            <mxPoint x="510" y="250" as="sourcePoint" />
            <mxPoint x="630" y="280" as="targetPoint" />
          </mxGeometry>
        </mxCell>
        <mxCell id="LWi7PXQvQpXjzRUc1ZB_-20" value="" style="endArrow=classic;html=1;entryX=0;entryY=0.5;entryDx=0;entryDy=0;edgeStyle=orthogonalEdgeStyle;elbow=vertical;curved=1;exitX=1;exitY=0.5;exitDx=0;exitDy=0;" edge="1" parent="1" source="LWi7PXQvQpXjzRUc1ZB_-13" target="LWi7PXQvQpXjzRUc1ZB_-18">
          <mxGeometry width="50" height="50" relative="1" as="geometry">
            <mxPoint x="740" y="210" as="sourcePoint" />
            <mxPoint x="820" y="250" as="targetPoint" />
          </mxGeometry>
        </mxCell>
        <mxCell id="LWi7PXQvQpXjzRUc1ZB_-21" value="" style="endArrow=classic;html=1;edgeStyle=orthogonalEdgeStyle;elbow=vertical;entryX=0.5;entryY=1;entryDx=0;entryDy=0;entryPerimeter=0;curved=1;" edge="1" parent="1" source="LWi7PXQvQpXjzRUc1ZB_-18" target="LWi7PXQvQpXjzRUc1ZB_-2">
          <mxGeometry width="50" height="50" relative="1" as="geometry">
            <mxPoint x="497.5" y="135" as="sourcePoint" />
            <mxPoint x="495.9000000000001" y="346.5" as="targetPoint" />
            <Array as="points">
              <mxPoint x="875" y="440" />
              <mxPoint x="440" y="440" />
            </Array>
          </mxGeometry>
        </mxCell>
      </root>
    </mxGraphModel>
  </diagram>
</mxfile>
